<svg xmlns="http://www.w3.org/2000/svg"
     width="648" height="187" viewBox="90 284 648 187"
     role="img" aria-labelledby="raytrip-light-title" aria-describedby="raytrip-light-desc"
     focusable="false">
  <title id="raytrip-light-title">Ray|Trip - Light-background variant</title>
  <desc id="raytrip-light-desc">The Ray|Trip wordmark for light backgrounds: navy Ray lettering with a coral vertical separator and coral Trip lettering. The background and letter counters are transparent.</desc>

  <g fill="#0B2A5B" fill-rule="evenodd">
    <path d="
      M 93.5 311.2 H 143.4
      C 170.6 311.2 189.7 327.6 189.7 351.9
      C 189.7 368.7 179.8 381.7 163.3 388.3
      L 193.6 430.7 Q 195 433.3 191.9 433.3
      H 165 Q 163.4 433.3 162.4 432
      L 133.7 391.4 H 118.1 V 431.2
      Q 118.1 433.3 115.6 433.3 H 93.4
      Q 90.6 433.3 90.6 430.8 V 314
      Q 90.6 311.2 93.5 311.2 Z
      M 118.1 335.4 V 367.4 H 143.8
      C 155.6 367.4 162.7 361.6 162.7 351.6
      C 162.7 341.6 155.5 335.4 143.8 335.4 Z"/>
    <path d="
      M 268.3 350.4 V 345
      Q 268.3 342 271 342 H 290.6
      Q 293.6 342 293.6 344.6 V 431
      Q 293.6 433.3 290.8 433.3 H 271.1
      Q 268.3 433.3 268.3 431 V 425.2
      C 260.9 431.6 251.3 435.5 240 435.5
      C 212.8 435.5 192.6 415.8 192.6 388.1
      C 192.6 360.7 213.1 339.6 240.5 339.6
      C 251 339.6 260.9 343.3 268.3 350.4 Z
      M 268.7 387.7
      C 268.7 373.2 257.7 362.6 243.4 362.6
      C 229.1 362.6 218.5 373.4 218.5 387.7
      C 218.5 402 229.1 412.5 243.4 412.5
      C 257.7 412.5 268.7 401.8 268.7 387.7 Z"/>
    <path d="
      M 304.2 342 H 326.8
      Q 329.4 342 330.4 344.5
      L 351 400.1 L 371.4 344.7
      Q 372.4 342 375.1 342 H 397.6
      Q 400.5 342 399.4 344.7
      L 350.6 468.6 Q 349.9 470.3 347.6 470.3
      H 324.1 Q 321.4 470.3 322.5 467.9
      L 337.7 432 L 302 345.1
      Q 300.7 342 304.2 342 Z"/>
  </g>

  <rect x="415.5" y="284.5" width="20" height="182"
        rx="10" fill="#FF6B6B"/>

  <g fill="#FF6B6B" fill-rule="evenodd">
    <path d="
      M 458.4 313.3 H 548.9
      Q 551.6 313.3 551.6 316 V 334.8
      Q 551.6 337.5 548.9 337.5 H 516.2 V 433
      Q 516.2 435.7 513.5 435.7 H 493.7
      Q 491 435.7 491 433 V 337.5 H 458.3
      Q 455.6 337.5 455.6 334.8 V 316
      Q 455.6 313.3 458.4 313.3 Z"/>
    <path transform="translate(-181 0)" d="
      M 720.2 343.7 H 739.7
      Q 742.6 343.7 742.6 346.4 V 354
      C 749.7 346.4 759 342.4 769.3 341.9
      Q 772.6 341.8 772.6 344.6 V 364.1
      Q 772.6 367 769.5 367
      C 752.8 367 742.7 375.2 742.7 389.3
      V 433 Q 742.7 435.7 740 435.7 H 720.1
      Q 717.4 435.7 717.4 433 V 346.3
      Q 717.4 343.7 720.2 343.7 Z"/>
    <circle cx="613" cy="324.5" r="11.2"/>
    <path d="
      M 603.2 343.7 H 622.8
      Q 625.5 343.7 625.5 346.4 V 433
      Q 625.5 435.7 622.8 435.7 H 603.1
      Q 600.4 435.7 600.4 433 V 346.3
      Q 600.4 343.7 603.2 343.7 Z"/>
    <path d="
      M 639.2 343.9 H 658.7
      Q 661.7 343.9 661.7 346.5 V 352.3
      C 669.1 345.2 679 341.5 689.5 341.5
      C 716.9 341.5 737.4 362.6 737.4 390
      C 737.4 417.7 717.2 437.4 690 437.4
      C 678.7 437.4 669.1 433.5 661.7 427.1
      V 468 Q 661.7 470.3 658.9 470.3 H 639.2
      Q 636.4 470.3 636.4 468 V 346.5
      Q 636.4 343.9 639.2 343.9 Z
      M 661.3 389.6
      C 661.3 375.1 672.3 364.5 686.6 364.5
      C 700.9 364.5 711.5 375.3 711.5 389.6
      C 711.5 403.9 700.9 414.4 686.6 414.4
      C 672.3 414.4 661.3 403.7 661.3 389.6 Z"/>
  </g>
</svg>
